<?xml version="1.0" standalone="no"?>
<!DOCTYPE svg PUBLIC "-//W3C//DTD SVG 20010904//EN"
 "http://www.w3.org/TR/2001/REC-SVG-20010904/DTD/svg10.dtd">
<svg version="1.0" xmlns="http://www.w3.org/2000/svg"
 width="260.000000pt" height="260.000000pt" viewBox="0 0 260.000000 260.000000"
 preserveAspectRatio="xMidYMid meet">
<metadata>
Created by potrace 1.11, written by Peter Selinger 2001-2013
</metadata>
<g transform="translate(0.000000,260.000000) scale(0.100000,-0.100000)"
fill="#000000" stroke="none">
<path d="M225 2418 c-11 -6 -28 -21 -37 -32 -16 -20 -17 -91 -18 -1083 0 -743
3 -1069 11 -1086 6 -13 23 -31 39 -40 26 -16 117 -17 1084 -17 737 0 1062 3
1079 11 13 6 31 23 40 39 16 26 17 117 17 1085 0 968 -1 1059 -17 1085 -9 16
-27 33 -40 39 -35 16 -2130 15 -2158 -1z"/>
</g>
</svg>
